<svg width="40" height="17" viewBox="0 0 40 17" fill="none" xmlns="http://www.w3.org/2000/svg">
<path d="M13.1694 3.02532C12.5514 3.02532 11.422 3.92171 9.78115 5.71448C8.55584 7.11242 7.66616 8.16355 7.11211 8.86786L5.6737 10.6926C5.05572 11.8665 4.57093 12.8429 4.21932 13.6219L3.35628 15.4787C3.13252 15.9376 2.93541 16.2631 2.76493 16.4552C2.60511 16.6366 2.38136 16.7273 2.09368 16.7273C1.81665 16.7273 1.54495 16.6739 1.27858 16.5672C1.02287 16.4712 0.799113 16.3431 0.607326 16.183C0.202442 15.8416 0 15.4681 0 15.0625C0 14.9025 0.117203 14.5877 0.35161 14.1181L0.958936 12.8216C1.15072 12.4374 1.37447 11.9465 1.63019 11.3489L2.5252 9.15598C3.78247 6.00795 4.41111 3.97506 4.41111 3.05733C4.41111 2.56645 4.25128 2.20362 3.93164 1.96886L3.61199 1.74476C3.50544 1.67006 3.45217 1.542 3.45217 1.36059C3.45217 1.16851 3.52143 0.987096 3.65994 0.816355C3.80911 0.645614 4.00089 0.496216 4.2353 0.36816C4.71477 0.122719 5.19424 0 5.6737 0C6.16383 0 6.5474 0.0533572 6.82443 0.16007C7.10145 0.266783 7.34119 0.410846 7.54363 0.592257C7.94851 0.965753 8.15096 1.35526 8.15096 1.76077C8.15096 2.16627 8.09768 2.57712 7.99113 2.9933C7.88458 3.39881 7.7514 3.81499 7.59158 4.24184C7.43175 4.65803 7.26128 5.06353 7.08014 5.45837C6.65395 6.3761 6.38758 6.94168 6.28103 7.15511C6.18514 7.35787 6.1585 7.43256 6.20112 7.37921C8.15096 4.85011 9.32299 3.35613 9.71722 2.89726C10.5376 1.94751 11.1769 1.29656 11.6351 0.944411C12.4768 0.314804 13.2706 0 14.0164 0C14.7729 0 15.3749 0.234769 15.8224 0.704306C16.2699 1.17384 16.4937 1.79278 16.4937 2.56111C16.4937 3.23341 16.3232 4.02308 15.9823 4.93014C15.6413 5.8372 15.4122 6.47215 15.295 6.83497L17.6444 3.72962L18.955 2.16094C19.7434 1.27522 20.436 0.693635 21.0327 0.416181C21.6293 0.138726 22.1141 0 22.487 0C22.8706 0 23.2435 0.0693641 23.6058 0.20809C23.9787 0.346818 24.293 0.544237 24.5488 0.800348C25.0922 1.32324 25.3639 2.01688 25.3639 2.88125C25.3639 3.71361 25.1721 4.56732 24.7885 5.44237C24.4049 6.31741 24.0693 7.03773 23.7816 7.60331C23.4939 8.15821 23.2169 8.71846 22.9505 9.28404C22.1727 10.9808 21.7838 12.24 21.7838 13.0617C21.7838 13.6379 22.0182 13.9261 22.487 13.9261C22.9346 13.9261 23.3394 13.83 23.7017 13.6379C24.0746 13.4458 24.3144 13.3498 24.4209 13.3498C24.6447 13.3498 24.7565 13.4619 24.7565 13.686C24.7565 14.6357 24.2717 15.4307 23.3021 16.071C22.6522 16.5085 22.0555 16.7273 21.5121 16.7273C20.9794 16.7273 20.5479 16.6632 20.2176 16.5352C19.8873 16.4071 19.5889 16.2044 19.3226 15.9269C18.7259 15.308 18.4276 14.5343 18.4276 13.6059C18.4276 12.6775 18.5448 11.8238 18.7792 11.0448C19.0136 10.2658 19.2906 9.51347 19.6102 8.78782C19.9299 8.0515 20.2495 7.37921 20.5692 6.77094C20.8995 6.15201 21.1499 5.66113 21.3203 5.2983C21.6613 4.55131 21.8318 4.00174 21.8318 3.64959C21.8318 3.23341 21.6134 3.02532 21.1765 3.02532C20.6011 3.02532 19.5676 3.9804 18.0759 5.89056C16.9465 7.37387 16.1634 8.441 15.7266 9.09195L14.6238 10.6926C14.0058 11.8665 13.5317 12.8429 13.2014 13.6219L12.3863 15.4787C12.1838 15.9376 12.008 16.2631 11.8588 16.4552C11.7097 16.6366 11.5019 16.7273 11.2355 16.7273C10.9692 16.7273 10.7081 16.6846 10.4524 16.5992C10.2073 16.5138 9.99424 16.4018 9.81311 16.2631C9.39757 15.9536 9.1898 15.6281 9.1898 15.2866C9.1898 14.9345 9.30168 14.4596 9.52543 13.862C9.75984 13.2538 10.0475 12.5761 10.3885 11.8291L12.626 7.09108C13.4251 5.33032 13.8247 4.21517 13.8247 3.74563C13.8247 3.26542 13.6062 3.02532 13.1694 3.02532ZM14.7516 7.53928C14.7623 7.53928 14.7676 7.53394 14.7676 7.52327L14.7836 7.49126C14.7623 7.5126 14.7516 7.52861 14.7516 7.53928Z" fill="#205FB3"/>
<path d="M26.1086 11.0448C26.1299 10.1164 26.2738 9.19333 26.5402 8.2756C26.8172 7.34719 27.1794 6.47215 27.6269 5.65046C28.0851 4.82877 28.6232 4.0711 29.2412 3.37747C29.8698 2.68383 30.5517 2.08624 31.2869 1.58469C32.8212 0.52823 34.4354 0 36.1295 0C37.8769 0 39.0649 0.698971 39.6936 2.09691C39.9173 2.59846 40.0185 3.16938 39.9972 3.80966C39.9866 4.43926 39.8853 5.02085 39.6936 5.55441C39.5018 6.07731 39.262 6.54685 38.9744 6.96303C38.3244 7.9021 37.6691 8.37164 37.0085 8.37164C36.2734 8.37164 35.73 8.16888 35.3783 7.76338C35.0694 7.41122 34.9735 7.00038 35.0907 6.53084C35.1226 6.39211 35.2185 6.26939 35.3783 6.16268C35.5382 6.0453 35.7406 5.86388 35.9857 5.61844C36.6782 4.89279 37.0405 4.04443 37.0725 3.07334C37.0938 2.41172 36.6889 2.0809 35.8578 2.0809C34.9628 2.0809 34.0252 2.58246 33.0449 3.58556C31.6172 5.04753 30.6103 6.92034 30.0243 9.204C29.5129 11.1889 29.6087 12.6402 30.312 13.5579C30.7275 14.0915 31.2922 14.3582 32.0061 14.3582C33.2101 14.3582 34.3715 13.9314 35.4902 13.0777C35.8312 12.8109 36.1082 12.5388 36.3213 12.2613C36.5344 11.9839 36.7315 11.8451 36.9126 11.8451C37.0938 11.8451 37.2429 11.9359 37.3601 12.1173C37.488 12.288 37.5519 12.5121 37.5519 12.7896C37.5519 13.4192 37.2696 14.0381 36.7049 14.6464C35.2558 16.0336 33.5137 16.7273 31.4787 16.7273C29.7419 16.7273 28.3994 16.2311 27.4511 15.2386C26.5135 14.2569 26.066 12.8589 26.1086 11.0448Z" fill="#205FB3"/>
</svg>
