<svg width="220" height="41" viewBox="0 0 220 41" fill="none" xmlns="http://www.w3.org/2000/svg">
<path d="M14.3438 16.3555C14.0859 16.3086 13.7344 16.2617 13.2891 16.2148C12.8672 16.168 12.4336 16.1328 11.9883 16.1094C11.4727 16.0859 10.9219 16.0742 10.3359 16.0742C9.75 16.0273 9.01172 16.0273 8.12109 16.0742C7.25391 16.0977 6.33984 16.1094 5.37891 16.1094C5.35547 16.7188 5.30859 17.3398 5.23828 17.9727C5.19141 18.6055 5.14453 19.2266 5.09766 19.8359C4.98047 20.9609 4.875 22.1094 4.78125 23.2812C4.71094 24.4531 4.67578 25.5664 4.67578 26.6211C4.67578 27.6758 4.73438 28.6367 4.85156 29.5039C4.99219 30.3477 5.23828 31.0156 5.58984 31.5078C5.30859 31.7188 5.00391 31.8828 4.67578 32C4.34766 32.0938 4.05469 32.1641 3.79688 32.2109C3.49219 32.2812 3.1875 32.3164 2.88281 32.3164C2.60156 32.3164 2.36719 32.2227 2.17969 32.0352C1.99219 31.8477 1.88672 31.5195 1.86328 31.0508C1.81641 30.2539 1.80469 29.457 1.82812 28.6602C1.875 27.8398 1.92188 26.9844 1.96875 26.0938C2.03906 25.2031 2.10938 24.2539 2.17969 23.2461C2.25 22.2148 2.32031 21.0898 2.39062 19.8711C2.46094 18.6055 2.49609 17.375 2.49609 16.1797C1.60547 16.2031 0.855469 16.2148 0.246094 16.2148C-0.363281 16.2148 -0.703125 16.2031 -0.773438 16.1797C-0.84375 16.1328 -0.925781 16.0273 -1.01953 15.8633C-1.11328 15.7227 -1.23047 15.5117 -1.37109 15.2305C-1.53516 14.9492 -1.73438 14.5508 -1.96875 14.0352C-1.52344 14.0352 -1.03125 14.0352 -0.492188 14.0352C0.0234375 14.0352 0.503906 14.0234 0.949219 14C1.46484 13.9766 1.98047 13.9531 2.49609 13.9297C2.47266 13.5547 2.46094 13.1562 2.46094 12.7344C2.4375 12.4062 2.42578 12.043 2.42578 11.6445C2.42578 11.2227 2.41406 10.8359 2.39062 10.4844C2.39062 10.3438 2.55469 10.1797 2.88281 9.99219C3.23438 9.78125 3.60938 9.59375 4.00781 9.42969C4.40625 9.26563 4.76953 9.16016 5.09766 9.11328C5.44922 9.06641 5.625 9.14844 5.625 9.35938C5.625 9.57031 5.61328 10.0859 5.58984 10.9062C5.58984 11.7031 5.56641 12.6758 5.51953 13.8242C5.75391 13.8242 5.92969 13.8125 6.04688 13.7891C7.28906 13.7422 8.28516 13.6953 9.03516 13.6484C9.80859 13.5781 10.4414 13.5664 10.9336 13.6133C11.4258 13.6602 11.8594 13.7773 12.2344 13.9648C12.6094 14.1523 13.0312 14.457 13.5 14.8789C13.6641 15.0195 13.8047 15.1719 13.9219 15.3359C14.0391 15.4766 14.1328 15.6406 14.2031 15.8281C14.2969 15.9922 14.3438 16.168 14.3438 16.3555ZM8.64844 19.5547C8.64844 19.4141 8.83594 19.2617 9.21094 19.0977C9.58594 18.9336 9.99609 18.8047 10.4414 18.7109C10.9102 18.5938 11.332 18.5352 11.707 18.5352C12.1055 18.5117 12.3047 18.5938 12.3047 18.7812C12.3047 19.1328 12.2812 19.6367 12.2344 20.293C12.1875 20.9258 12.1289 21.6055 12.0586 22.332C11.9883 23.0352 11.918 23.75 11.8477 24.4766C11.7773 25.1797 11.7305 25.7773 11.707 26.2695C11.6602 26.7852 11.6133 27.3477 11.5664 27.957C11.5195 28.4727 11.4844 29.0469 11.4609 29.6797C11.4375 30.3125 11.4375 30.957 11.4609 31.6133C11.4609 31.7305 11.3438 31.8477 11.1094 31.9648C10.875 32.082 10.6172 32.1641 10.3359 32.2109C10.0547 32.2812 9.78516 32.3164 9.52734 32.3164C9.26953 32.3164 9.12891 32.2695 9.10547 32.1758C9.05859 32.082 9.01172 31.918 8.96484 31.6836C8.91797 31.4492 8.87109 31.1211 8.82422 30.6992C8.77734 30.2539 8.74219 29.6914 8.71875 29.0117C8.69531 28.3086 8.70703 27.4648 8.75391 26.4805C8.84766 24.5352 8.85938 23.0352 8.78906 21.9805C8.71875 20.9023 8.67188 20.0938 8.64844 19.5547ZM11.1094 12.5586C11.5781 12.5586 12.0234 12.6992 12.4453 12.9805C12.8672 13.2617 13.0781 13.6367 13.0781 14.1055C13.0781 14.457 12.9844 14.7969 12.7969 15.125C12.6328 15.4531 12.4219 15.7461 12.1641 16.0039C11.9062 16.2617 11.6133 16.4727 11.2852 16.6367C10.957 16.7773 10.6523 16.8477 10.3711 16.8477C9.99609 16.8477 9.69141 16.7891 9.45703 16.6719C9.22266 16.5312 9.03516 16.3789 8.89453 16.2148C8.77734 16.0273 8.69531 15.8281 8.64844 15.6172C8.60156 15.4062 8.57812 15.207 8.57812 15.0195C8.57812 14.7852 8.61328 14.5273 8.68359 14.2461C8.75391 13.9414 8.88281 13.6719 9.07031 13.4375C9.25781 13.1797 9.51562 12.9687 9.84375 12.8047C10.1719 12.6406 10.5938 12.5586 11.1094 12.5586ZM10.2305 15.8281C10.3711 15.8281 10.5234 15.7812 10.6875 15.6875C10.875 15.5703 11.0391 15.4414 11.1797 15.3008C11.3438 15.1602 11.4727 15.0078 11.5664 14.8438C11.6836 14.6797 11.7422 14.5391 11.7422 14.4219C11.7422 14.2344 11.6484 14.1406 11.4609 14.1406C11.3438 14.1406 11.1914 14.1875 11.0039 14.2812C10.8398 14.375 10.6758 14.4922 10.5117 14.6328C10.3477 14.75 10.207 14.8906 10.0898 15.0547C9.99609 15.1953 9.94922 15.3359 9.94922 15.4766C9.94922 15.7109 10.043 15.8281 10.2305 15.8281ZM22.5 21.0312C22.3125 21.0312 22.1016 21.1367 21.8672 21.3477C21.6562 21.5352 21.4453 21.8047 21.2344 22.1562C21.0234 22.4844 20.8125 22.8594 20.6016 23.2812C20.3906 23.6797 20.2031 24.0898 20.0391 24.5117C19.6406 25.4961 19.2539 26.5039 18.8789 27.5352C18.5039 28.5664 18.2812 29.457 18.2109 30.207C18.1875 30.2773 18.1758 30.3477 18.1758 30.418C18.1758 30.4648 18.1758 30.5117 18.1758 30.5586C18.1523 30.6055 18.1406 30.6758 18.1406 30.7695C18.0938 31.0977 18.0234 31.3672 17.9297 31.5781C17.8594 31.7656 17.6953 31.8945 17.4375 31.9648C17.1562 32.0117 16.875 32.0469 16.5938 32.0703C16.3125 32.0938 16.043 32.0703 15.7852 32C15.6211 31.9531 15.4922 31.8711 15.3984 31.7539C15.3281 31.6133 15.2695 31.4609 15.2227 31.2969C15.1992 31.1094 15.1758 30.9336 15.1523 30.7695C15.1523 30.6055 15.1523 30.4648 15.1523 30.3477C15.1523 30.207 15.1641 29.7734 15.1875 29.0469C15.2109 28.2969 15.2344 27.4531 15.2578 26.5156C15.2812 25.5781 15.293 24.6641 15.293 23.7734C15.293 22.8594 15.2812 22.168 15.2578 21.6992C15.2109 21.3711 15.1641 21.0664 15.1172 20.7852C15.0703 20.5273 15.0117 20.2695 14.9414 20.0117C14.8945 19.7539 14.8125 19.5312 14.6953 19.3438C14.9531 19.2031 15.2109 19.0859 15.4688 18.9922C15.7266 18.8984 15.9609 18.8281 16.1719 18.7812C16.4297 18.7109 16.6641 18.6641 16.875 18.6406C17.4375 18.5938 17.8711 18.5938 18.1758 18.6406C18.5039 18.6875 18.668 18.9336 18.668 19.3789C18.668 19.7773 18.6328 20.3984 18.5625 21.2422C18.5156 22.0625 18.457 23.2109 18.3867 24.6875C18.6445 24.1016 18.9492 23.4453 19.3008 22.7188C19.6523 21.9688 20.0273 21.2773 20.4258 20.6445C20.8242 19.9883 21.2344 19.4492 21.6562 19.0273C22.0781 18.582 22.4766 18.3594 22.8516 18.3594C23.1094 18.3594 23.4023 18.418 23.7305 18.5352C24.082 18.6289 24.4102 18.7695 24.7148 18.957C25.0195 19.1211 25.2891 19.3086 25.5234 19.5195C25.7812 19.7305 25.957 19.9414 26.0508 20.1523C26.1445 20.3867 26.2031 20.75 26.2266 21.2422C26.25 21.7344 26.25 22.2852 26.2266 22.8945C26.4141 22.4492 26.625 22.0156 26.8594 21.5938C27.0938 21.1719 27.3281 20.7852 27.5625 20.4336C27.8203 20.0586 28.0781 19.7422 28.3359 19.4844C28.5938 19.2266 28.8281 19.0508 29.0391 18.957C29.3203 18.8398 29.6602 18.8164 30.0586 18.8867C30.457 18.957 30.8438 19.0859 31.2188 19.2734C31.6172 19.4375 31.957 19.6367 32.2383 19.8711C32.543 20.1055 32.7305 20.3281 32.8008 20.5391C32.8711 20.7734 32.9297 21.1367 32.9766 21.6289C33.0234 22.1211 33.0586 22.6602 33.082 23.2461C33.1055 23.832 33.1172 24.4414 33.1172 25.0742C33.1172 25.6836 33.1055 26.2227 33.082 26.6914C33.0352 28.0508 33.0469 29.1289 33.1172 29.9258C33.1875 30.6992 33.4688 31.2734 33.9609 31.6484C33.6328 31.8594 33.3281 32.0117 33.0469 32.1055C32.7656 32.2227 32.5195 32.3047 32.3086 32.3516C32.0508 32.4219 31.8281 32.457 31.6406 32.457C31.3828 32.457 31.1719 32.3867 31.0078 32.2461C30.8438 32.1289 30.7148 31.9648 30.6211 31.7539C30.5273 31.543 30.4688 31.3086 30.4453 31.0508C30.4219 30.793 30.4102 30.5352 30.4102 30.2773C30.4102 30.043 30.4219 29.6562 30.4453 29.1172C30.4922 28.5547 30.5273 27.9219 30.5508 27.2188C30.5742 26.5156 30.5742 25.8008 30.5508 25.0742C30.5273 24.3242 30.4688 23.6445 30.375 23.0352C30.3047 22.4023 30.1758 21.8867 29.9883 21.4883C29.8008 21.0898 29.543 20.8906 29.2148 20.8906C28.9336 20.8906 28.6641 21.0664 28.4062 21.418C28.1484 21.7461 27.9023 22.1914 27.668 22.7539C27.4336 23.293 27.2227 23.9023 27.0352 24.582C26.8711 25.2383 26.7188 25.8945 26.5781 26.5508C26.4375 27.207 26.332 27.8164 26.2617 28.3789C26.1914 28.918 26.1562 29.3516 26.1562 29.6797L26.1211 29.3633C26.1211 29.8086 26.1211 30.2188 26.1211 30.5938C26.1445 30.9688 26.168 31.3438 26.1914 31.7188C26.2148 31.8594 26.0859 31.9766 25.8047 32.0703C25.5234 32.1875 25.207 32.2344 24.8555 32.2109C24.5273 32.2109 24.2227 32.1406 23.9414 32C23.6602 31.8594 23.5195 31.625 23.5195 31.2969C23.5195 31.0625 23.5195 30.7109 23.5195 30.2422C23.5195 29.7734 23.5078 29.2461 23.4844 28.6602C23.4844 28.0742 23.4727 27.4648 23.4492 26.832C23.4492 26.1758 23.4375 25.5547 23.4141 24.9688C23.4141 24.5234 23.4023 24.0664 23.3789 23.5977C23.3789 23.1289 23.3555 22.707 23.3086 22.332C23.2617 21.9336 23.168 21.6172 23.0273 21.3828C22.9102 21.1484 22.7344 21.0312 22.5 21.0312ZM40.5 32.3867C38.8594 32.3867 37.5938 31.8359 36.7031 30.7344C35.8125 29.6328 35.3672 28.1914 35.3672 26.4102C35.3672 25.168 35.543 24.0078 35.8945 22.9297C36.2695 21.8281 36.7617 20.8789 37.3711 20.082C37.9805 19.2852 38.6836 18.6641 39.4805 18.2188C40.3008 17.75 41.1562 17.5156 42.0469 17.5156C42.9141 17.5156 43.6523 17.832 44.2617 18.4648C44.8711 19.0742 45.1758 19.9531 45.1758 21.1016C45.1758 21.8516 45.0117 22.6016 44.6836 23.3516C44.3555 24.0781 43.9219 24.7344 43.3828 25.3203C42.8672 25.8828 42.293 26.3398 41.6602 26.6914C41.0273 27.043 40.418 27.2188 39.832 27.2188C39.457 27.2188 39.1406 27.1719 38.8828 27.0781C38.625 26.9844 38.3906 26.8438 38.1797 26.6562C38.25 27.9922 38.543 28.9297 39.0586 29.4688C39.5742 29.9844 40.2422 30.2422 41.0625 30.2422C41.625 30.2422 42.1172 30.125 42.5391 29.8906C42.9844 29.6562 43.3594 29.3867 43.6641 29.082C43.9688 28.7773 44.2148 28.4727 44.4023 28.168C44.5898 27.8398 44.7188 27.5938 44.7891 27.4297C44.8594 27.2891 44.9766 27.2188 45.1406 27.2188C45.3281 27.2188 45.4219 27.3594 45.4219 27.6406C45.4219 27.8984 45.3281 28.2969 45.1406 28.8359C44.9766 29.3516 44.6953 29.8789 44.2969 30.418C43.8984 30.9336 43.3828 31.3906 42.75 31.7891C42.1406 32.1875 41.3906 32.3867 40.5 32.3867ZM42.1172 19.0273C41.9766 19.0273 41.707 19.1797 41.3086 19.4844C40.9336 19.7656 40.5234 20.1875 40.0781 20.75C39.6562 21.3125 39.2578 21.9922 38.8828 22.7891C38.5312 23.5625 38.3086 24.4414 38.2148 25.4258C39.6211 25.0977 40.7344 24.582 41.5547 23.8789C42.375 23.1758 42.7852 22.1445 42.7852 20.7852C42.7852 20.1055 42.7031 19.6484 42.5391 19.4141C42.375 19.1562 42.2344 19.0273 42.1172 19.0273Z" transform="translate(46.4841 -3)" fill="#FFB762"/>
<path d="M53.0156 25.3203C53.5312 25.5078 54.0234 25.6836 54.4922 25.8477C54.9609 26.0117 55.3711 26.2109 55.7227 26.4453C56.0742 26.6797 56.3555 26.9609 56.5664 27.2891C56.7773 27.5938 56.8828 27.9805 56.8828 28.4492C56.8828 29.0117 56.7539 29.5391 56.4961 30.0312C56.2617 30.5234 55.9102 30.957 55.4414 31.332C54.9727 31.707 54.3984 32 53.7188 32.2109C53.0625 32.4453 52.3242 32.5625 51.5039 32.5625C50.5898 32.5625 49.8516 32.4688 49.2891 32.2812C48.7266 32.1172 48.293 31.918 47.9883 31.6836C47.6836 31.4492 47.4844 31.2148 47.3906 30.9805C47.2969 30.7461 47.25 30.5586 47.25 30.418C47.25 30.1367 47.3086 29.832 47.4258 29.5039C47.543 29.1523 47.7656 28.7773 48.0938 28.3789C48.2344 28.2148 48.3867 28.0625 48.5508 27.9219C48.8789 27.6406 49.207 27.4648 49.5352 27.3945C49.4883 27.9336 49.5469 28.3789 49.7109 28.7305C49.8984 29.0586 50.1328 29.3164 50.4141 29.5039C50.7188 29.6914 51.0469 29.8203 51.3984 29.8906C51.7734 29.9609 52.125 29.9961 52.4531 29.9961C52.7812 29.9961 53.1094 29.9492 53.4375 29.8555C53.7891 29.7617 54.1055 29.6445 54.3867 29.5039C54.668 29.3398 54.8906 29.1641 55.0547 28.9766C55.2422 28.7656 55.3359 28.543 55.3359 28.3086C55.3359 28.0508 55.2305 27.8398 55.0195 27.6758C54.8086 27.5117 54.5391 27.3828 54.2109 27.2891C53.9062 27.1719 53.5664 27.0898 53.1914 27.043C52.8398 26.9727 52.5 26.9023 52.1719 26.832C51.8438 26.7617 51.3984 26.668 50.8359 26.5508C50.2969 26.4102 49.7578 26.1992 49.2188 25.918C48.7031 25.6367 48.2461 25.2617 47.8477 24.793C47.4727 24.3242 47.2852 23.7031 47.2852 22.9297C47.2852 22.0391 47.5078 21.2656 47.9531 20.6094C48.4219 19.9297 48.9844 19.3672 49.6406 18.9219C50.3203 18.4531 51.0352 18.1016 51.7852 17.8672C52.5352 17.6328 53.2031 17.5156 53.7891 17.5156C54.0938 17.5156 54.4219 17.5625 54.7734 17.6562C55.125 17.7266 55.4531 17.8672 55.7578 18.0781C56.0625 18.2656 56.3086 18.5234 56.4961 18.8516C56.707 19.1797 56.8125 19.6016 56.8125 20.1172C56.8125 20.6328 56.7656 21.0547 56.6719 21.3828C56.6016 21.6875 56.4844 21.9336 56.3203 22.1211C56.1797 22.2852 56.0039 22.3906 55.793 22.4375C55.582 22.4844 55.3359 22.5078 55.0547 22.5078C54.8672 22.5078 54.6914 22.4844 54.5273 22.4375C54.3867 22.3906 54.2344 22.3438 54.0703 22.2969C53.9062 22.25 53.7539 22.168 53.6133 22.0508C53.8477 21.7695 54.0234 21.5 54.1406 21.2422C54.2812 20.9844 54.3516 20.668 54.3516 20.293C54.3516 19.9648 54.2578 19.6719 54.0703 19.4141C53.9062 19.1562 53.625 19.0273 53.2266 19.0273C52.8047 19.0273 52.3945 19.1094 51.9961 19.2734C51.6211 19.4375 51.2812 19.6602 50.9766 19.9414C50.6953 20.2227 50.4609 20.5508 50.2734 20.9258C50.1094 21.2773 50.0273 21.6641 50.0273 22.0859C50.0273 22.7188 50.2617 23.3164 50.7305 23.8789C51.2227 24.4414 51.9844 24.9219 53.0156 25.3203ZM61.875 26.4805C62.1562 25.6367 62.3906 24.9219 62.5781 24.3359C62.7891 23.75 62.9648 23.2812 63.1055 22.9297C63.2695 22.5078 63.4102 22.168 63.5273 21.9102C63.668 21.5352 63.8203 21.1602 63.9844 20.7852C64.1719 20.4102 64.3594 20.0703 64.5469 19.7656C64.7344 19.4375 64.9102 19.168 65.0742 18.957C65.2383 18.7461 65.3789 18.6055 65.4961 18.5352C65.5898 18.4883 65.8008 18.4883 66.1289 18.5352C66.4805 18.582 66.8555 18.6992 67.2539 18.8867C67.6758 19.0508 68.0625 19.2852 68.4141 19.5898C68.7891 19.8945 69.0469 20.2695 69.1875 20.7148C69.3281 21.2539 69.375 21.957 69.3281 22.8242C69.2812 23.6914 69.2109 24.582 69.1172 25.4961C69.0469 26.4102 68.9883 27.2773 68.9414 28.0977C68.918 28.918 68.9766 29.5391 69.1172 29.9609C69.2109 30.1953 69.3047 30.4297 69.3984 30.6641C69.4922 30.8516 69.5977 31.0508 69.7148 31.2617C69.8555 31.4492 70.0078 31.6133 70.1719 31.7539C69.4922 32.0117 68.9414 32.1992 68.5195 32.3164C68.1211 32.457 67.8164 32.5508 67.6055 32.5977C67.3477 32.668 67.1719 32.6797 67.0781 32.6328C66.8906 32.5625 66.7148 32.3867 66.5508 32.1055C66.3867 31.8242 66.2461 31.3789 66.1289 30.7695C66.082 30.582 66.0703 30.2539 66.0938 29.7852C66.1172 29.3164 66.1523 28.7891 66.1992 28.2031C66.2461 27.6172 66.293 27.0078 66.3398 26.375C66.3867 25.7188 66.4336 25.1094 66.4805 24.5469C66.5273 23.9844 66.5508 23.4922 66.5508 23.0703C66.5742 22.6484 66.5742 22.3672 66.5508 22.2266C66.4336 21.8281 66.2695 21.5469 66.0586 21.3828C65.8477 21.1953 65.6836 21.1719 65.5664 21.3125C65.2852 21.6641 64.9688 22.2734 64.6172 23.1406C64.2891 23.9844 63.9727 24.9102 63.668 25.918C63.3633 26.9023 63.0938 27.8867 62.8594 28.8711C62.6484 29.8555 62.5195 30.6641 62.4727 31.2969C62.4727 31.4375 62.3555 31.5898 62.1211 31.7539C61.9102 31.8945 61.6641 32.0234 61.3828 32.1406C61.125 32.2578 60.8672 32.3281 60.6094 32.3516C60.3516 32.3984 60.1758 32.3633 60.082 32.2461C60.0117 32.1758 59.8594 32.0117 59.625 31.7539C59.4141 31.4961 59.2969 31.0625 59.2734 30.4531C59.2266 29.8672 59.2266 29.0703 59.2734 28.0625C59.3203 27.0312 59.332 25.9531 59.3086 24.8281V22.2266C59.3086 21.1719 59.2969 19.7188 59.2734 17.8672C59.2734 15.9922 59.2617 13.5195 59.2383 10.4492C59.4961 10.3086 59.7305 10.1914 59.9414 10.0977C60.1523 9.98047 60.3516 9.88672 60.5391 9.81641C60.75 9.72266 60.9492 9.65234 61.1367 9.60547C62.1445 9.34766 62.6719 9.34766 62.7188 9.60547C62.7422 9.83984 62.7188 10.5898 62.6484 11.8555C62.625 12.3945 62.5898 13.0742 62.543 13.8945C62.4961 14.7148 62.4375 15.7109 62.3672 16.8828C62.3203 18.0547 62.25 19.4375 62.1562 21.0312C62.0859 22.6016 61.9922 24.418 61.875 26.4805ZM76.5703 32.3867C74.9297 32.3867 73.6641 31.8359 72.7734 30.7344C71.8828 29.6328 71.4375 28.1914 71.4375 26.4102C71.4375 25.168 71.6133 24.0078 71.9648 22.9297C72.3398 21.8281 72.832 20.8789 73.4414 20.082C74.0508 19.2852 74.7539 18.6641 75.5508 18.2188C76.3711 17.75 77.2266 17.5156 78.1172 17.5156C78.9844 17.5156 79.7227 17.832 80.332 18.4648C80.9414 19.0742 81.2461 19.9531 81.2461 21.1016C81.2461 21.8516 81.082 22.6016 80.7539 23.3516C80.4258 24.0781 79.9922 24.7344 79.4531 25.3203C78.9375 25.8828 78.3633 26.3398 77.7305 26.6914C77.0977 27.043 76.4883 27.2188 75.9023 27.2188C75.5273 27.2188 75.2109 27.1719 74.9531 27.0781C74.6953 26.9844 74.4609 26.8438 74.25 26.6562C74.3203 27.9922 74.6133 28.9297 75.1289 29.4688C75.6445 29.9844 76.3125 30.2422 77.1328 30.2422C77.6953 30.2422 78.1875 30.125 78.6094 29.8906C79.0547 29.6562 79.4297 29.3867 79.7344 29.082C80.0391 28.7773 80.2852 28.4727 80.4727 28.168C80.6602 27.8398 80.7891 27.5938 80.8594 27.4297C80.9297 27.2891 81.0469 27.2188 81.2109 27.2188C81.3984 27.2188 81.4922 27.3594 81.4922 27.6406C81.4922 27.8984 81.3984 28.2969 81.2109 28.8359C81.0469 29.3516 80.7656 29.8789 80.3672 30.418C79.9688 30.9336 79.4531 31.3906 78.8203 31.7891C78.2109 32.1875 77.4609 32.3867 76.5703 32.3867ZM78.1875 19.0273C78.0469 19.0273 77.7773 19.1797 77.3789 19.4844C77.0039 19.7656 76.5938 20.1875 76.1484 20.75C75.7266 21.3125 75.3281 21.9922 74.9531 22.7891C74.6016 23.5625 74.3789 24.4414 74.2852 25.4258C75.6914 25.0977 76.8047 24.582 77.625 23.8789C78.4453 23.1758 78.8555 22.1445 78.8555 20.7852C78.8555 20.1055 78.7734 19.6484 78.6094 19.4141C78.4453 19.1562 78.3047 19.0273 78.1875 19.0273ZM88.2422 32.3867C86.6016 32.3867 85.3359 31.8359 84.4453 30.7344C83.5547 29.6328 83.1094 28.1914 83.1094 26.4102C83.1094 25.168 83.2852 24.0078 83.6367 22.9297C84.0117 21.8281 84.5039 20.8789 85.1133 20.082C85.7227 19.2852 86.4258 18.6641 87.2227 18.2188C88.043 17.75 88.8984 17.5156 89.7891 17.5156C90.6562 17.5156 91.3945 17.832 92.0039 18.4648C92.6133 19.0742 92.918 19.9531 92.918 21.1016C92.918 21.8516 92.7539 22.6016 92.4258 23.3516C92.0977 24.0781 91.6641 24.7344 91.125 25.3203C90.6094 25.8828 90.0352 26.3398 89.4023 26.6914C88.7695 27.043 88.1602 27.2188 87.5742 27.2188C87.1992 27.2188 86.8828 27.1719 86.625 27.0781C86.3672 26.9844 86.1328 26.8438 85.9219 26.6562C85.9922 27.9922 86.2852 28.9297 86.8008 29.4688C87.3164 29.9844 87.9844 30.2422 88.8047 30.2422C89.3672 30.2422 89.8594 30.125 90.2812 29.8906C90.7266 29.6562 91.1016 29.3867 91.4062 29.082C91.7109 28.7773 91.957 28.4727 92.1445 28.168C92.332 27.8398 92.4609 27.5938 92.5312 27.4297C92.6016 27.2891 92.7188 27.2188 92.8828 27.2188C93.0703 27.2188 93.1641 27.3594 93.1641 27.6406C93.1641 27.8984 93.0703 28.2969 92.8828 28.8359C92.7188 29.3516 92.4375 29.8789 92.0391 30.418C91.6406 30.9336 91.125 31.3906 90.4922 31.7891C89.8828 32.1875 89.1328 32.3867 88.2422 32.3867ZM89.8594 19.0273C89.7188 19.0273 89.4492 19.1797 89.0508 19.4844C88.6758 19.7656 88.2656 20.1875 87.8203 20.75C87.3984 21.3125 87 21.9922 86.625 22.7891C86.2734 23.5625 86.0508 24.4414 85.957 25.4258C87.3633 25.0977 88.4766 24.582 89.2969 23.8789C90.1172 23.1758 90.5273 22.1445 90.5273 20.7852C90.5273 20.1055 90.4453 19.6484 90.2812 19.4141C90.1172 19.1562 89.9766 19.0273 89.8594 19.0273ZM99.9141 32.3867C98.2734 32.3867 97.0078 31.8359 96.1172 30.7344C95.2266 29.6328 94.7812 28.1914 94.7812 26.4102C94.7812 25.168 94.957 24.0078 95.3086 22.9297C95.6836 21.8281 96.1758 20.8789 96.7852 20.082C97.3945 19.2852 98.0977 18.6641 98.8945 18.2188C99.7148 17.75 100.57 17.5156 101.461 17.5156C102.328 17.5156 103.066 17.832 103.676 18.4648C104.285 19.0742 104.59 19.9531 104.59 21.1016C104.59 21.8516 104.426 22.6016 104.098 23.3516C103.77 24.0781 103.336 24.7344 102.797 25.3203C102.281 25.8828 101.707 26.3398 101.074 26.6914C100.441 27.043 99.832 27.2188 99.2461 27.2188C98.8711 27.2188 98.5547 27.1719 98.2969 27.0781C98.0391 26.9844 97.8047 26.8438 97.5938 26.6562C97.6641 27.9922 97.957 28.9297 98.4727 29.4688C98.9883 29.9844 99.6562 30.2422 100.477 30.2422C101.039 30.2422 101.531 30.125 101.953 29.8906C102.398 29.6562 102.773 29.3867 103.078 29.082C103.383 28.7773 103.629 28.4727 103.816 28.168C104.004 27.8398 104.133 27.5938 104.203 27.4297C104.273 27.2891 104.391 27.2188 104.555 27.2188C104.742 27.2188 104.836 27.3594 104.836 27.6406C104.836 27.8984 104.742 28.2969 104.555 28.8359C104.391 29.3516 104.109 29.8789 103.711 30.418C103.312 30.9336 102.797 31.3906 102.164 31.7891C101.555 32.1875 100.805 32.3867 99.9141 32.3867ZM101.531 19.0273C101.391 19.0273 101.121 19.1797 100.723 19.4844C100.348 19.7656 99.9375 20.1875 99.4922 20.75C99.0703 21.3125 98.6719 21.9922 98.2969 22.7891C97.9453 23.5625 97.7227 24.4414 97.6289 25.4258C99.0352 25.0977 100.148 24.582 100.969 23.8789C101.789 23.1758 102.199 22.1445 102.199 20.7852C102.199 20.1055 102.117 19.6484 101.953 19.4141C101.789 19.1562 101.648 19.0273 101.531 19.0273ZM111.586 32.3867C109.945 32.3867 108.68 31.8359 107.789 30.7344C106.898 29.6328 106.453 28.1914 106.453 26.4102C106.453 25.168 106.629 24.0078 106.98 22.9297C107.355 21.8281 107.848 20.8789 108.457 20.082C109.066 19.2852 109.77 18.6641 110.566 18.2188C111.387 17.75 112.242 17.5156 113.133 17.5156C114 17.5156 114.738 17.832 115.348 18.4648C115.957 19.0742 116.262 19.9531 116.262 21.1016C116.262 21.8516 116.098 22.6016 115.77 23.3516C115.441 24.0781 115.008 24.7344 114.469 25.3203C113.953 25.8828 113.379 26.3398 112.746 26.6914C112.113 27.043 111.504 27.2188 110.918 27.2188C110.543 27.2188 110.227 27.1719 109.969 27.0781C109.711 26.9844 109.477 26.8438 109.266 26.6562C109.336 27.9922 109.629 28.9297 110.145 29.4688C110.66 29.9844 111.328 30.2422 112.148 30.2422C112.711 30.2422 113.203 30.125 113.625 29.8906C114.07 29.6562 114.445 29.3867 114.75 29.082C115.055 28.7773 115.301 28.4727 115.488 28.168C115.676 27.8398 115.805 27.5938 115.875 27.4297C115.945 27.2891 116.062 27.2188 116.227 27.2188C116.414 27.2188 116.508 27.3594 116.508 27.6406C116.508 27.8984 116.414 28.2969 116.227 28.8359C116.062 29.3516 115.781 29.8789 115.383 30.418C114.984 30.9336 114.469 31.3906 113.836 31.7891C113.227 32.1875 112.477 32.3867 111.586 32.3867ZM113.203 19.0273C113.062 19.0273 112.793 19.1797 112.395 19.4844C112.02 19.7656 111.609 20.1875 111.164 20.75C110.742 21.3125 110.344 21.9922 109.969 22.7891C109.617 23.5625 109.395 24.4414 109.301 25.4258C110.707 25.0977 111.82 24.582 112.641 23.8789C113.461 23.1758 113.871 22.1445 113.871 20.7852C113.871 20.1055 113.789 19.6484 113.625 19.4141C113.461 19.1562 113.32 19.0273 113.203 19.0273ZM123.258 32.3867C121.617 32.3867 120.352 31.8359 119.461 30.7344C118.57 29.6328 118.125 28.1914 118.125 26.4102C118.125 25.168 118.301 24.0078 118.652 22.9297C119.027 21.8281 119.52 20.8789 120.129 20.082C120.738 19.2852 121.441 18.6641 122.238 18.2188C123.059 17.75 123.914 17.5156 124.805 17.5156C125.672 17.5156 126.41 17.832 127.02 18.4648C127.629 19.0742 127.934 19.9531 127.934 21.1016C127.934 21.8516 127.77 22.6016 127.441 23.3516C127.113 24.0781 126.68 24.7344 126.141 25.3203C125.625 25.8828 125.051 26.3398 124.418 26.6914C123.785 27.043 123.176 27.2188 122.59 27.2188C122.215 27.2188 121.898 27.1719 121.641 27.0781C121.383 26.9844 121.148 26.8438 120.938 26.6562C121.008 27.9922 121.301 28.9297 121.816 29.4688C122.332 29.9844 123 30.2422 123.82 30.2422C124.383 30.2422 124.875 30.125 125.297 29.8906C125.742 29.6562 126.117 29.3867 126.422 29.082C126.727 28.7773 126.973 28.4727 127.16 28.168C127.348 27.8398 127.477 27.5938 127.547 27.4297C127.617 27.2891 127.734 27.2188 127.898 27.2188C128.086 27.2188 128.18 27.3594 128.18 27.6406C128.18 27.8984 128.086 28.2969 127.898 28.8359C127.734 29.3516 127.453 29.8789 127.055 30.418C126.656 30.9336 126.141 31.3906 125.508 31.7891C124.898 32.1875 124.148 32.3867 123.258 32.3867ZM124.875 19.0273C124.734 19.0273 124.465 19.1797 124.066 19.4844C123.691 19.7656 123.281 20.1875 122.836 20.75C122.414 21.3125 122.016 21.9922 121.641 22.7891C121.289 23.5625 121.066 24.4414 120.973 25.4258C122.379 25.0977 123.492 24.582 124.312 23.8789C125.133 23.1758 125.543 22.1445 125.543 20.7852C125.543 20.1055 125.461 19.6484 125.297 19.4141C125.133 19.1562 124.992 19.0273 124.875 19.0273ZM134.93 32.3867C133.289 32.3867 132.023 31.8359 131.133 30.7344C130.242 29.6328 129.797 28.1914 129.797 26.4102C129.797 25.168 129.973 24.0078 130.324 22.9297C130.699 21.8281 131.191 20.8789 131.801 20.082C132.41 19.2852 133.113 18.6641 133.91 18.2188C134.73 17.75 135.586 17.5156 136.477 17.5156C137.344 17.5156 138.082 17.832 138.691 18.4648C139.301 19.0742 139.605 19.9531 139.605 21.1016C139.605 21.8516 139.441 22.6016 139.113 23.3516C138.785 24.0781 138.352 24.7344 137.812 25.3203C137.297 25.8828 136.723 26.3398 136.09 26.6914C135.457 27.043 134.848 27.2188 134.262 27.2188C133.887 27.2188 133.57 27.1719 133.312 27.0781C133.055 26.9844 132.82 26.8438 132.609 26.6562C132.68 27.9922 132.973 28.9297 133.488 29.4688C134.004 29.9844 134.672 30.2422 135.492 30.2422C136.055 30.2422 136.547 30.125 136.969 29.8906C137.414 29.6562 137.789 29.3867 138.094 29.082C138.398 28.7773 138.645 28.4727 138.832 28.168C139.02 27.8398 139.148 27.5938 139.219 27.4297C139.289 27.2891 139.406 27.2188 139.57 27.2188C139.758 27.2188 139.852 27.3594 139.852 27.6406C139.852 27.8984 139.758 28.2969 139.57 28.8359C139.406 29.3516 139.125 29.8789 138.727 30.418C138.328 30.9336 137.812 31.3906 137.18 31.7891C136.57 32.1875 135.82 32.3867 134.93 32.3867ZM136.547 19.0273C136.406 19.0273 136.137 19.1797 135.738 19.4844C135.363 19.7656 134.953 20.1875 134.508 20.75C134.086 21.3125 133.688 21.9922 133.312 22.7891C132.961 23.5625 132.738 24.4414 132.645 25.4258C134.051 25.0977 135.164 24.582 135.984 23.8789C136.805 23.1758 137.215 22.1445 137.215 20.7852C137.215 20.1055 137.133 19.6484 136.969 19.4141C136.805 19.1562 136.664 19.0273 136.547 19.0273ZM146.602 32.3867C144.961 32.3867 143.695 31.8359 142.805 30.7344C141.914 29.6328 141.469 28.1914 141.469 26.4102C141.469 25.168 141.645 24.0078 141.996 22.9297C142.371 21.8281 142.863 20.8789 143.473 20.082C144.082 19.2852 144.785 18.6641 145.582 18.2188C146.402 17.75 147.258 17.5156 148.148 17.5156C149.016 17.5156 149.754 17.832 150.363 18.4648C150.973 19.0742 151.277 19.9531 151.277 21.1016C151.277 21.8516 151.113 22.6016 150.785 23.3516C150.457 24.0781 150.023 24.7344 149.484 25.3203C148.969 25.8828 148.395 26.3398 147.762 26.6914C147.129 27.043 146.52 27.2188 145.934 27.2188C145.559 27.2188 145.242 27.1719 144.984 27.0781C144.727 26.9844 144.492 26.8438 144.281 26.6562C144.352 27.9922 144.645 28.9297 145.16 29.4688C145.676 29.9844 146.344 30.2422 147.164 30.2422C147.727 30.2422 148.219 30.125 148.641 29.8906C149.086 29.6562 149.461 29.3867 149.766 29.082C150.07 28.7773 150.316 28.4727 150.504 28.168C150.691 27.8398 150.82 27.5938 150.891 27.4297C150.961 27.2891 151.078 27.2188 151.242 27.2188C151.43 27.2188 151.523 27.3594 151.523 27.6406C151.523 27.8984 151.43 28.2969 151.242 28.8359C151.078 29.3516 150.797 29.8789 150.398 30.418C150 30.9336 149.484 31.3906 148.852 31.7891C148.242 32.1875 147.492 32.3867 146.602 32.3867ZM148.219 19.0273C148.078 19.0273 147.809 19.1797 147.41 19.4844C147.035 19.7656 146.625 20.1875 146.18 20.75C145.758 21.3125 145.359 21.9922 144.984 22.7891C144.633 23.5625 144.41 24.4414 144.316 25.4258C145.723 25.0977 146.836 24.582 147.656 23.8789C148.477 23.1758 148.887 22.1445 148.887 20.7852C148.887 20.1055 148.805 19.6484 148.641 19.4141C148.477 19.1562 148.336 19.0273 148.219 19.0273ZM153.773 19.5547C153.773 19.4141 153.961 19.2617 154.336 19.0977C154.711 18.9336 155.121 18.8047 155.566 18.7109C156.035 18.5938 156.457 18.5352 156.832 18.5352C157.23 18.5117 157.43 18.5938 157.43 18.7812C157.43 19.1328 157.406 19.6367 157.359 20.293C157.312 20.9258 157.254 21.6055 157.184 22.332C157.113 23.0352 157.043 23.75 156.973 24.4766C156.902 25.1797 156.855 25.7773 156.832 26.2695C156.785 26.7852 156.738 27.3477 156.691 27.957C156.645 28.4727 156.609 29.0469 156.586 29.6797C156.562 30.3125 156.562 30.957 156.586 31.6133C156.586 31.7305 156.469 31.8477 156.234 31.9648C156 32.082 155.742 32.1641 155.461 32.2109C155.18 32.2812 154.91 32.3164 154.652 32.3164C154.395 32.3164 154.254 32.2695 154.23 32.1758C154.184 32.082 154.137 31.918 154.09 31.6836C154.043 31.4492 153.996 31.1211 153.949 30.6992C153.902 30.2539 153.867 29.6914 153.844 29.0117C153.82 28.3086 153.832 27.4648 153.879 26.4805C153.973 24.5352 153.984 23.0352 153.914 21.9805C153.844 20.9023 153.797 20.0938 153.773 19.5547ZM156.234 12.5586C156.703 12.5586 157.148 12.6992 157.57 12.9805C157.992 13.2617 158.203 13.6367 158.203 14.1055C158.203 14.457 158.109 14.7969 157.922 15.125C157.758 15.4531 157.547 15.7461 157.289 16.0039C157.031 16.2617 156.738 16.4727 156.41 16.6367C156.082 16.7773 155.777 16.8477 155.496 16.8477C155.121 16.8477 154.816 16.7891 154.582 16.6719C154.348 16.5312 154.16 16.3789 154.02 16.2148C153.902 16.0273 153.82 15.8281 153.773 15.6172C153.727 15.4062 153.703 15.207 153.703 15.0195C153.703 14.7852 153.738 14.5273 153.809 14.2461C153.879 13.9414 154.008 13.6719 154.195 13.4375C154.383 13.1797 154.641 12.9687 154.969 12.8047C155.297 12.6406 155.719 12.5586 156.234 12.5586ZM155.355 15.8281C155.496 15.8281 155.648 15.7812 155.812 15.6875C156 15.5703 156.164 15.4414 156.305 15.3008C156.469 15.1602 156.598 15.0078 156.691 14.8438C156.809 14.6797 156.867 14.5391 156.867 14.4219C156.867 14.2344 156.773 14.1406 156.586 14.1406C156.469 14.1406 156.316 14.1875 156.129 14.2812C155.965 14.375 155.801 14.4922 155.637 14.6328C155.473 14.75 155.332 14.8906 155.215 15.0547C155.121 15.1953 155.074 15.3359 155.074 15.4766C155.074 15.7109 155.168 15.8281 155.355 15.8281ZM173.074 16.3555C172.816 16.3086 172.465 16.2617 172.02 16.2148C171.598 16.168 171.164 16.1328 170.719 16.1094C170.203 16.0859 169.652 16.0742 169.066 16.0742C168.48 16.0273 167.742 16.0273 166.852 16.0742C165.984 16.0977 165.07 16.1094 164.109 16.1094C164.086 16.7188 164.039 17.3398 163.969 17.9727C163.922 18.6055 163.875 19.2266 163.828 19.8359C163.711 20.9609 163.605 22.1094 163.512 23.2812C163.441 24.4531 163.406 25.5664 163.406 26.6211C163.406 27.6758 163.465 28.6367 163.582 29.5039C163.723 30.3477 163.969 31.0156 164.32 31.5078C164.039 31.7188 163.734 31.8828 163.406 32C163.078 32.0938 162.785 32.1641 162.527 32.2109C162.223 32.2812 161.918 32.3164 161.613 32.3164C161.332 32.3164 161.098 32.2227 160.91 32.0352C160.723 31.8477 160.617 31.5195 160.594 31.0508C160.547 30.2539 160.535 29.457 160.559 28.6602C160.605 27.8398 160.652 26.9844 160.699 26.0938C160.77 25.2031 160.84 24.2539 160.91 23.2461C160.98 22.2148 161.051 21.0898 161.121 19.8711C161.191 18.6055 161.227 17.375 161.227 16.1797C160.336 16.2031 159.586 16.2148 158.977 16.2148C158.367 16.2148 158.027 16.2031 157.957 16.1797C157.887 16.1328 157.805 16.0273 157.711 15.8633C157.617 15.7227 157.5 15.5117 157.359 15.2305C157.195 14.9492 156.996 14.5508 156.762 14.0352C157.207 14.0352 157.699 14.0352 158.238 14.0352C158.754 14.0352 159.234 14.0234 159.68 14C160.195 13.9766 160.711 13.9531 161.227 13.9297C161.203 13.5547 161.191 13.1562 161.191 12.7344C161.168 12.4062 161.156 12.043 161.156 11.6445C161.156 11.2227 161.145 10.8359 161.121 10.4844C161.121 10.3438 161.285 10.1797 161.613 9.99219C161.965 9.78125 162.34 9.59375 162.738 9.42969C163.137 9.26563 163.5 9.16016 163.828 9.11328C164.18 9.06641 164.355 9.14844 164.355 9.35938C164.355 9.57031 164.344 10.0859 164.32 10.9062C164.32 11.7031 164.297 12.6758 164.25 13.8242C164.484 13.8242 164.66 13.8125 164.777 13.7891C166.02 13.7422 167.016 13.6953 167.766 13.6484C168.539 13.5781 169.172 13.5664 169.664 13.6133C170.156 13.6602 170.59 13.7773 170.965 13.9648C171.34 14.1523 171.762 14.457 172.23 14.8789C172.395 15.0195 172.535 15.1719 172.652 15.3359C172.77 15.4766 172.863 15.6406 172.934 15.8281C173.027 15.9922 173.074 16.168 173.074 16.3555Z" transform="translate(46.4841 -3)" fill="#2A6DC7"/>
<path d="M26.6165 0H1.40087C0.627588 0 0 0.627588 0 1.40087V35.0217C0 35.7949 0.627588 36.4225 1.40087 36.4225H26.6165C27.3897 36.4225 28.0173 35.7949 28.0173 35.0217V1.40087C28.0173 0.627588 27.3897 0 26.6165 0ZM25.2156 33.6208H2.80173V2.80173H25.2156V33.6208Z" transform="translate(0 5) rotate(-10.7118)" fill="#2A6DC7"/>
<path d="M7.00433 16.8104C10.8665 16.8104 14.0087 13.6683 14.0087 9.80607C14.0087 8.38069 13.5786 7.05476 12.8438 5.94738L13.5982 5.19301C14.1453 4.64597 14.1453 3.75923 13.5982 3.21219C13.0512 2.66515 12.1644 2.66515 11.6174 3.21219L10.863 3.96655C10.1283 3.47975 9.29825 3.12533 8.4052 2.94322V2.80173C9.17848 2.80173 9.80607 2.17415 9.80607 1.40087C9.80607 0.627588 9.17848 0 8.4052 0H5.60347C4.83019 0 4.2026 0.627588 4.2026 1.40087C4.2026 2.17415 4.83019 2.80173 5.60347 2.80173V2.94322C2.41019 3.59392 0 6.42367 0 9.80607C0 13.6683 3.14214 16.8104 7.00433 16.8104ZM7.00433 5.60347C9.32207 5.60347 11.2069 7.48833 11.2069 9.80607C11.2069 12.1238 9.32207 14.0087 7.00433 14.0087C4.6866 14.0087 2.80173 12.1238 2.80173 9.80607C2.80173 7.48833 4.6866 5.60347 7.00433 5.60347Z" transform="translate(7.66342 7.82748) rotate(-10.7118)" fill="#FFB762"/>
<path d="M1.40087 4.2026C2.17415 4.2026 2.80173 3.57501 2.80173 2.80173V1.40087C2.80173 0.627588 2.17415 0 1.40087 0C0.627588 0 0 0.627588 0 1.40087V2.80173C0 3.57501 0.627588 4.2026 1.40087 4.2026Z" transform="translate(14.4711 13.6683) rotate(-10.7118)" fill="#FFB762"/>
<path d="M1.40087 2.80173H9.80607C10.5793 2.80173 11.2069 2.17415 11.2069 1.40087C11.2069 0.627588 10.5793 0 9.80607 0H1.40087C0.627588 0 0 0.627588 0 1.40087C0 2.17415 0.627588 2.80173 1.40087 2.80173Z" transform="translate(9.93224 27.3582) rotate(-10.7118)" fill="#86AEE4"/>
<path d="M1.40087 2.80173H9.80607C10.5793 2.80173 11.2069 2.17415 11.2069 1.40087C11.2069 0.627588 10.5793 0 9.80607 0H1.40087C0.627588 0 0 0.627588 0 1.40087C0 2.17415 0.627588 2.80173 1.40087 2.80173Z" transform="translate(10.7134 31.4876) rotate(-10.7118)" fill="#86AEE4"/>
<path d="M1.40087 0C0.627588 0 0 0.627588 0 1.40087C0 2.17415 0.627588 2.80173 1.40087 2.80173H2.80173C3.57501 2.80173 4.2026 2.17415 4.2026 1.40087C4.2026 0.627588 3.57501 0 2.80173 0H1.40087Z" transform="translate(22.3203 25.0149) rotate(-10.7118)" fill="#86AEE4"/>
<path d="M2.80173 0H1.40087C0.627588 0 0 0.627588 0 1.40087C0 2.17415 0.627588 2.80173 1.40087 2.80173H2.80173C3.57501 2.80173 4.2026 2.17415 4.2026 1.40087C4.2026 0.627588 3.57501 0 2.80173 0Z" transform="translate(23.1015 29.1442) rotate(-10.7118)" fill="#86AEE4"/>
</svg>
